HIERARCHY
ROOT Hips
{
	OFFSET -32.860001 56.121803 44.745396
	CHANNELS 6 Xposition Yposition Zposition Zrotation Xrotation Yrotation
	JOINT Chest
	{
		OFFSET -0.637402 0.831600 5.390099
		CHANNELS 6 Xposition Yposition Zposition Zrotation Xrotation Yrotation
		JOINT Chest2
		{
			OFFSET 0.000000 0.000000 4.429901
			CHANNELS 6 Xposition Yposition Zposition Zrotation Xrotation Yrotation
			JOINT Neck
			{
				OFFSET 0.000000 0.000000 10.301395
				CHANNELS 6 Xposition Yposition Zposition Zrotation Xrotation Yrotation
				JOINT Head
				{
					OFFSET 0.000000 0.000000 2.173897
					CHANNELS 6 Xposition Yposition Zposition Zrotation Xrotation Yrotation
					End Site
					{
						OFFSET 0.000000 0.000000 8.298004
					}
				}
			}
			JOINT LeftCollar
			{
				OFFSET 2.142401 -0.572701 5.717800
				CHANNELS 6 Xposition Yposition Zposition Zrotation Xrotation Yrotation
				JOINT LeftShoulder
				{
					OFFSET 5.674000 0.000000 0.000000
					CHANNELS 6 Xposition Yposition Zposition Zrotation Xrotation Yrotation
					JOINT LeftElbow
					{
						OFFSET 0.000000 0.000000 -12.238701
						CHANNELS 6 Xposition Yposition Zposition Zrotation Xrotation Yrotation
						JOINT LeftWrist
						{
							OFFSET 0.000000 0.000000 -10.253700
							CHANNELS 6 Xposition Yposition Zposition Zrotation Xrotation Yrotation
							End Site
							{
								OFFSET 0.000000 0.000000 -2.173901
							}
						}
					}
				}
			}
			JOINT RightCollar
			{
				OFFSET -2.882599 -1.580101 6.695801
				CHANNELS 6 Xposition Yposition Zposition Zrotation Xrotation Yrotation
				JOINT RightShoulder
				{
					OFFSET -4.235600 0.000000 0.000000
					CHANNELS 6 Xposition Yposition Zposition Zrotation Xrotation Yrotation
					JOINT RightElbow
					{
						OFFSET 0.000000 0.000000 -10.709900
						CHANNELS 6 Xposition Yposition Zposition Zrotation Xrotation Yrotation
						JOINT RightWrist
						{
							OFFSET 0.000000 0.000000 -11.716801
							CHANNELS 6 Xposition Yposition Zposition Zrotation Xrotation Yrotation
							End Site
							{
								OFFSET 0.000000 0.000000 -2.173901
							}
						}
					}
				}
			}
		}
	}
	JOINT LeftHip
	{
		OFFSET 2.279499 0.210400 -2.475502
		CHANNELS 6 Xposition Yposition Zposition Zrotation Xrotation Yrotation
		JOINT LeftKnee
		{
			OFFSET 0.000000 -0.000004 -20.742800
			CHANNELS 6 Xposition Yposition Zposition Zrotation Xrotation Yrotation
			JOINT LeftAnkle
			{
				OFFSET 0.000000 0.000000 -16.666000
				CHANNELS 6 Xposition Yposition Zposition Zrotation Xrotation Yrotation
				End Site
				{
					OFFSET 0.000000 -8.310898 0.000000
				}
			}
		}
	}
	JOINT RightHip
	{
		OFFSET -1.961899 0.232300 -2.727402
		CHANNELS 6 Xposition Yposition Zposition Zrotation Xrotation Yrotation
		JOINT RightKnee
		{
			OFFSET 0.000000 -0.000004 -20.526800
			CHANNELS 6 Xposition Yposition Zposition Zrotation Xrotation Yrotation
			JOINT RightAnkle
			{
				OFFSET 0.000000 0.000000 -16.867300
				CHANNELS 6 Xposition Yposition Zposition Zrotation Xrotation Yrotation
				End Site
				{
					OFFSET 0.000000 -7.186401 0.000000
				}
			}
		}
	}
}
MOTION
Frames: 9
Frame Time: 0.041667
-52.586700 74.667206 45.287891 2167.739429 7.714497 -1.627718 -0.637390 0.831613 5.390094 -9.657149 -3.865149 24.874833 -0.000007 -0.000002 4.429898 -6.554343 -4.187876 -1.073633 -0.000011 -0.000007 10.301394 404.061424 -6.501433 -24.917133 0.000002 -0.000005 2.173892 -357.123271 0.517371 3.827705 2.142392 -0.572704 5.717800 2.757616 -7.721694 -17.280305 5.673999 0.000003 0.000006 165.926305 -546.910623 447.885502 -0.000006 -0.000004 -12.238703 -176.515051 -63.217649 190.310572 0.000007 -0.000007 -10.253693 233.052721 -8.953368 17.083285 -2.882611 -1.580088 6.695795 -10.959970 -7.498148 19.916603 -4.235617 0.000006 -0.000003 -1612.450514 241.187039 -433.088853 0.000005 0.000004 -10.709898 484.094193 -164.679331 165.187688 -0.000003 -0.000001 -11.716811 -532.281560 19.037412 19.647044 2.279502 0.210418 -2.475512 517.704953 -16.914900 114.216862 -0.000001 -0.000002 -20.742813 -705.075838 188.439318 -50.919193 -0.000007 -0.000003 -16.666002 813.262319 7.639293 57.366001 -1.961891 0.232309 -2.727407 -1091.324129 -13.647202 -3.935354 -0.000004 -0.000003 -20.526804 885.451681 153.983336 -185.711477 -0.000005 -0.000001 -16.867302 -4.073422 18.035186 -6.857546
-52.568092 74.663910 45.272694 2167.666865 7.704530 -1.473771 -0.637409 0.831600 5.390100 -9.666640 -3.680498 24.684159 -0.000008 -0.000015 4.429898 -6.785715 -4.204511 -1.087575 -0.000008 0.000000 10.301398 404.103334 -6.395023 -24.911751 -0.000008 -0.000002 2.173896 -356.991585 0.449027 3.802446 2.142390 -0.572691 5.717796 2.605389 -7.616940 -17.111996 5.673994 0.000005 -0.000006 166.000877 -546.378906 447.667482 0.000008 0.000001 -12.238700 -177.236825 -62.818028 190.092743 0.000008 -0.000004 -10.253702 233.380406 -8.781084 17.037683 -2.882611 -1.580100 6.695796 -10.743880 -7.333901 20.064179 -4.235614 0.000006 0.000005 -1613.356798 240.582048 -433.801024 0.000006 0.000006 -10.709895 484.479743 -164.230150 165.569236 0.000000 -0.000001 -11.716786 -533.714752 19.092723 19.711856 2.279498 0.210397 -2.475504 517.658507 -16.843327 114.503060 -0.000008 0.000005 -20.742802 -704.931257 188.346182 -51.010260 -0.000006 0.000000 -16.666002 813.275269 7.606707 57.379982 -1.961899 0.232299 -2.727407 -1091.338117 -13.610604 -4.026760 0.000007 0.000001 -20.526798 885.534682 153.947232 -185.817250 -0.000008 0.000001 -16.867300 -4.061823 18.019263 -6.846830
-52.549297 74.659698 45.262390 2167.598891 7.724274 -1.351143 -0.637402 0.831597 5.390098 -9.665120 -3.546526 24.477286 -0.000002 -0.000000 4.429905 -7.036902 -4.192246 -1.122548 0.000006 0.000000 10.301403 404.341298 -6.358119 -24.880101 -0.000004 -0.000009 2.173893 -356.898011 0.431574 3.699243 2.142400 -0.572707 5.717800 2.519359 -7.858029 -17.244435 5.673999 -0.000006 -0.000002 166.274931 -546.534034 447.985551 -0.000005 0.000008 -12.238705 -177.048339 -62.789772 190.106281 -0.000001 0.000006 -10.253695 234.022826 -8.907976 17.227919 -2.882600 -1.580094 6.695796 -10.333945 -7.148471 20.675526 -4.235605 -0.000002 -0.000006 -1615.082049 239.988641 -435.232768 0.000005 -0.000004 -10.709909 484.358002 -163.981859 165.887577 -0.000002 0.000000 -11.716815 -534.587650 19.172937 19.739366 2.279494 0.210403 -2.475510 517.572501 -16.763801 114.723532 -0.000008 0.000002 -20.742809 -704.705697 188.307878 -51.122071 -0.000014 -0.000004 -16.665998 813.313682 7.560865 57.515766 -1.961895 0.232304 -2.727403 -1091.421609 -13.623542 -4.081240 0.000007 -0.000004 -20.526808 885.692158 153.866076 -185.934770 0.000006 -0.000001 -16.867302 -3.998221 17.996452 -6.817510
-52.519299 74.654007 45.254189 2167.525235 7.733709 -1.324744 -0.637407 0.831607 5.390100 -9.657029 -3.427147 24.469144 -0.000001 0.000010 4.429904 -7.167414 -4.191355 -1.143747 -0.000010 -0.000006 10.301397 404.390256 -6.422587 -24.948804 -0.000004 0.000008 2.173893 -356.842304 0.493709 3.618157 2.142396 -0.572704 5.717799 2.308588 -7.873876 -17.467611 5.673991 0.000003 0.000004 166.548016 -546.593757 448.284194 0.000002 0.000005 -12.238701 -176.714370 -62.723943 190.250589 -0.000004 -0.000001 -10.253699 233.946601 -8.511221 17.013004 -2.882607 -1.580101 6.695792 -10.407987 -7.359041 20.832055 -4.235612 0.000009 0.000008 -1615.027845 240.059730 -435.380327 0.000010 0.000000 -10.709902 484.321064 -164.078848 165.911292 0.000010 -0.000010 -11.716820 -534.533992 19.170966 19.764310 2.279501 0.210407 -2.475500 517.408031 -16.692818 114.809510 -0.000004 0.000000 -20.742809 -704.492813 188.246284 -51.260443 -0.000008 0.000007 -16.665998 813.294721 7.442838 57.476097 -1.961893 0.232311 -2.727395 -1091.297682 -13.634840 -3.998575 0.000003 -0.000011 -20.526806 885.677515 153.818100 -186.040542 0.000010 -0.000002 -16.867300 -3.902615 17.992561 -6.768391
-52.485600 74.642410 45.242489 2167.436497 7.711809 -1.273741 -0.637403 0.831594 5.390093 -9.609744 -3.318913 24.420568 -0.000006 -0.000006 4.429896 -7.274546 -4.199979 -1.154950 0.000004 0.000007 10.301395 404.361815 -6.373215 -25.035637 -0.000006 -0.000003 2.173906 -356.734797 0.536044 3.518126 2.142400 -0.572695 5.717805 1.920326 -7.593015 -17.513250 5.674003 -0.000006 0.000006 167.073927 -546.315030 448.409405 0.000001 0.000000 -12.238701 -176.467909 -62.791664 190.450481 -0.000001 0.000000 -10.253698 233.546625 -8.017007 16.592536 -2.882597 -1.580090 6.695794 -10.491165 -7.454717 20.985237 -4.235606 -0.000001 -0.000004 -1614.835398 240.391786 -435.410407 0.000000 0.000006 -10.709904 484.381662 -164.181533 165.962450 -0.000001 -0.000009 -11.716792 -534.037738 19.167246 19.713842 2.279492 0.210393 -2.475508 517.227440 -16.665624 114.889383 0.000001 0.000001 -20.742802 -704.318124 188.180495 -51.363200 -0.000009 0.000009 -16.666008 813.202487 7.366146 57.603937 -1.961895 0.232292 -2.727403 -1091.259870 -13.617850 -3.960753 0.000008 -0.000011 -20.526804 885.747346 153.747504 -186.117314 0.000002 0.000005 -16.867306 -3.821198 17.987937 -6.673412
-52.446301 74.626312 45.226494 2167.204161 7.626174 -1.137140 -0.637404 0.831600 5.390103 -9.418930 -3.148641 24.334543 -0.000002 0.000005 4.429896 -7.352256 -4.221042 -1.160317 -0.000013 -0.000011 10.301399 404.320042 -6.281966 -25.151014 -0.000004 0.000001 2.173891 -356.669828 0.516816 3.525387 2.142396 -0.572698 5.717798 1.725409 -7.321800 -17.356892 5.673994 0.000005 -0.000001 167.282302 -546.718339 448.415989 0.000003 0.000005 -12.238707 -175.427221 -62.945500 190.727568 0.000001 0.000000 -10.253693 233.206755 -7.561714 16.399694 -2.882606 -1.580097 6.695800 -10.336976 -7.186734 20.998402 -4.235597 0.000006 -0.000005 -1615.006098 240.416594 -435.299212 0.000008 0.000000 -10.709905 485.771523 -163.874461 166.467351 -0.000002 -0.000011 -11.716811 -535.360664 19.258354 19.707218 2.279487 0.210395 -2.475502 517.145970 -16.646291 114.943860 -0.000006 0.000006 -20.742802 -704.151085 188.291308 -51.451200 -0.000009 0.000009 -16.666006 813.334446 7.309897 57.787915 -1.961899 0.232302 -2.727403 -1090.902187 -13.497798 -3.946179 0.000003 -0.000010 -20.526806 885.630577 153.731152 -186.172146 -0.000005 -0.000005 -16.867302 -3.735852 18.164570 -6.639568
-52.403400 74.607506 45.213097 2166.893579 7.604294 -0.876065 -0.637404 0.831601 5.390098 -9.174062 -2.979101 24.097657 0.000003 -0.000004 4.429905 -7.419685 -4.289759 -1.174719 0.000008 -0.000010 10.301397 404.318266 -6.272121 -25.187269 -0.000001 0.000005 2.173903 -356.584943 0.600934 3.566162 2.142410 -0.572708 5.717798 1.664650 -7.145037 -17.020961 5.673995 0.000000 -0.000005 167.400970 -547.147548 448.296324 0.000001 0.000003 -12.238706 -174.369470 -63.261397 190.990121 0.000007 -0.000006 -10.253687 233.073375 -7.464719 16.287897 -2.882593 -1.580100 6.695793 -10.364732 -6.933975 20.852151 -4.235610 0.000006 0.000010 -1614.404167 240.805860 -434.599828 0.000016 -0.000008 -10.709912 486.170024 -163.913448 166.612657 -0.000001 -0.000002 -11.716804 -535.342851 19.270942 19.687296 2.279498 0.210402 -2.475500 517.158319 -16.736733 115.110175 0.000005 0.000000 -20.742817 -703.997597 188.216203 -51.538565 -0.000003 -0.000000 -16.666006 813.191558 7.305555 57.828159 -1.961895 0.232309 -2.727406 -1090.518275 -13.425673 -4.069575 0.000003 -0.000010 -20.526802 885.527360 153.696632 -186.195915 0.000003 0.000000 -16.867300 -3.625543 18.188773 -6.618125
-52.355999 74.588211 45.199390 2166.639824 7.618681 -0.512041 -0.637404 0.831599 5.390100 -8.981380 -2.860596 23.805779 -0.000005 0.000000 4.429901 -7.434732 -4.373215 -1.172299 -0.000002 -0.000006 10.301390 404.353127 -6.277928 -25.414149 0.000001 0.000002 2.173901 -356.695674 0.670498 3.685572 2.142397 -0.572710 5.717795 1.224704 -6.294477 -16.497420 5.673999 0.000007 -0.000000 167.976782 -549.770669 447.746275 -0.000003 0.000000 -12.238699 -170.772583 -63.559534 191.269995 0.000004 0.000007 -10.253698 232.592639 -7.027806 15.664037 -2.882607 -1.580106 6.695790 -10.483896 -6.621060 20.342655 -4.235598 0.000000 0.000006 -1613.284781 241.231790 -433.414790 0.000002 0.000002 -10.709890 486.505359 -163.841594 166.700889 -0.000008 -0.000009 -11.716791 -535.118820 19.324885 19.635843 2.279490 0.210399 -2.475512 517.079526 -16.949137 115.359464 -0.000010 -0.000006 -20.742805 -703.824766 188.107494 -51.585673 -0.000007 0.000000 -16.666004 813.026158 7.173218 57.879481 -1.961895 0.232307 -2.727401 -1090.335008 -13.385140 -4.332372 -0.000001 0.000000 -20.526806 885.535283 153.631800 -186.211721 -0.000002 0.000003 -16.867302 -3.553306 18.192863 -6.550706
-52.302296 74.566101 45.176891 2166.403991 7.527405 -0.202618 -0.637407 0.831606 5.390102 -8.790605 -2.664843 23.544617 -0.000009 -0.000002 4.429901 -7.494696 -4.402614 -1.177946 -0.000002 0.000000 10.301390 404.484841 -6.222883 -25.616109 -0.000001 -0.000003 2.173898 -356.794766 0.569016 3.792153 2.142406 -0.572701 5.717797 1.483835 -6.158416 -16.027259 5.673998 0.000004 -0.000000 167.791534 -549.659856 447.450364 -0.000011 0.000005 -12.238700 -170.315630 -63.831007 191.433359 0.000004 0.000009 -10.253702 232.404099 -6.796925 14.811409 -2.882601 -1.580103 6.695790 -10.297340 -6.123903 20.328035 -4.235613 0.000007 0.000003 -1613.485861 241.652147 -433.295016 0.000013 -0.000006 -10.709889 486.276520 -163.817675 166.622738 -0.000004 -0.000012 -11.716806 -534.672508 19.279228 19.636767 2.279498 0.210410 -2.475500 516.886641 -17.263004 115.468173 0.000000 -0.000003 -20.742802 -703.566749 188.120868 -51.622959 -0.000010 0.000002 -16.665997 813.088013 7.174708 58.053131 -1.961896 0.232299 -2.727398 -1090.168570 -13.244879 -4.512207 0.000004 -0.000009 -20.526800 885.566702 153.570697 -186.244642 -0.000003 0.000005 -16.867300 -3.257637 18.160998 -6.583122
